# xmcd CD database file
#
# Track frame offsets:
#	150
#	16336
#	29839
#	36740
#	58762
#	81197
#	96817
#
# Disc length: 1521 seconds
#
# Revision: 0
# Processed by: cddbd v1.4PL0 Copyright (c) Steve Scherf et al.
# Submitted via: CDex 1.50Beta7
#
DISCID=5d05ef07
DTITLE=David Ryan Harris - Atlanta
DYEAR=2002
DGENRE=Blues
TTITLE0=Strong Enough
TTITLE1=Dickin' Around
TTITLE2=Be Beautiful
TTITLE3=Turn Around
TTITLE4=Would Be
TTITLE5=Have You Ever Been (To Electric Ladyland)
TTITLE6=Sweetest Thing
EXTD=YEAR: 2002
EXTT0=
EXTT1=
EXTT2=
EXTT3=
EXTT4=
EXTT5=
EXTT6=
PLAYORDER=
